<?xml version="1.0" encoding="utf-8"?>
<!-- Svg Vector Icons : http://www.onlinewebfonts.com/icon -->
<!DOCTYPE svg PUBLIC "-//W3C//DTD SVG 1.1//EN" "http://www.w3.org/Graphics/SVG/1.1/DTD/svg11.dtd">
<svg fill="#fecf22" version="1.1" xmlns="http://www.w3.org/2000/svg" xmlns:xlink="http://www.w3.org/1999/xlink" x="0px" y="0px" viewBox="0 0 1000 1000" enable-background="new 0 0 1000 1000" xml:space="preserve">
<metadata> Svg Vector Icons : http://www.onlinewebfonts.com/icon </metadata>
<g><path d="M695.2,895.3c29.6,0,44.5,16.3,44.5,48.8c0,30.6-14.8,45.9-44.5,45.9H306.2c-30.6,0-45.9-16.3-45.9-48.8c0-30.6,15.3-45.9,45.9-45.9h143.5v-775l-100.5,31.6c-12.4,2.9-24.4,1.4-35.9-4.3c-11.5-6.7-19.2-16.3-23-28.7c-8.6-29.6,1.4-48.8,30.1-57.4l163.6-50.2c16.3-2.9,30.1-0.5,41.6,7.2c11.5,8.6,17.2,21.1,17.2,37.3v839.6H695.2z"/></g>
</svg>