<?xml version="1.0" encoding="utf-8"?>
<!-- Svg Vector Icons : http://www.onlinewebfonts.com/icon -->
<!DOCTYPE svg PUBLIC "-//W3C//DTD SVG 1.1//EN" "http://www.w3.org/Graphics/SVG/1.1/DTD/svg11.dtd">
<svg fill="#fecf22" version="1.1" xmlns="http://www.w3.org/2000/svg" xmlns:xlink="http://www.w3.org/1999/xlink" x="0px" y="0px" viewBox="0 0 1000 1000" enable-background="new 0 0 1000 1000" xml:space="preserve">
<metadata> Svg Vector Icons : http://www.onlinewebfonts.com/icon </metadata>
<g><path d="M295.6,27.1c20.7-2.8,37.6-4.7,50.8-5.6c17.8-2.8,34.3-4.7,49.3-5.6c37.6-3.7,70-5.6,97.3-5.6C586,8.3,656,22.8,703,53.9c56.4,37.6,85.1,100.6,86,188.9c0.9,58.3-21.1,114.2-66.3,167.8c-18.8,23.5-42.3,47-70.5,70.5c-22.6,19.7-50.8,41.4-84.6,64.9l-46.5,32.4L476,613.6c-33.8,26.3-62,52.2-84.6,77.5C335,754.1,305.9,822.7,304,897h431.4c30.1,0,45.1,16,45.1,47.9c0,30.1-15,45.1-45.1,45.1H257.5c-25.4,0-40-14.1-43.7-42.3c-1.9-18.8-2.8-33.8-2.8-45.1c0-52.6,8.9-101.5,26.8-146.6c16.9-39.5,40.9-77.5,71.9-114.2c25.4-31,57.8-62,97.3-93c15-12.2,32.9-25.8,53.6-40.9l53.6-38.1c56.4-39.5,99.6-75.6,129.7-108.6c37.6-42.3,55.9-81.3,55-117c-0.9-53.6-20.7-92.1-59.2-115.6c-32.9-18.8-81.3-28.2-145.2-28.2c-26.3,0.9-59.2,3.3-98.7,7l-107.1,14.1c-31,0-47.9-13.2-50.8-39.5c-3.8-30.1,9.4-47.4,39.5-52.2L295.6,27.1z"/></g>
</svg>