<?xml version="1.0" encoding="utf-8"?>
<!-- Svg Vector Icons : http://www.onlinewebfonts.com/icon -->
<!DOCTYPE svg PUBLIC "-//W3C//DTD SVG 1.1//EN" "http://www.w3.org/Graphics/SVG/1.1/DTD/svg11.dtd">
<svg fill="#fecf22" version="1.1" xmlns="http://www.w3.org/2000/svg" xmlns:xlink="http://www.w3.org/1999/xlink" x="0px" y="0px" viewBox="0 0 1000 1000" enable-background="new 0 0 1000 1000" xml:space="preserve">
<metadata> Svg Vector Icons : http://www.onlinewebfonts.com/icon </metadata>
<g><path d="M217.9,908.1c8.3-25,25.9-34.2,52.7-27.8c25.9,6.5,50,11.1,72.2,13.9c32.4,4.6,67.1,6.9,104.1,6.9c84.2,0,145.3-15.7,183.2-47.2c43.5-34.2,65.2-84.7,65.2-151.3c0-39.8-10.2-75.9-30.5-108.3c-21.3-33.3-49.1-52.7-83.3-58.3c-37-4.6-81.9-7.4-134.6-8.3c-20.4-0.9-43.5-1.4-69.4-1.4h-91.6c-13.9,0-24.5-3.7-31.9-11.1c-8.3-8.3-12.5-19.4-12.5-33.3c0-29.6,14.3-44.4,43-44.4h111c28.7,0,50.4,0.5,65.2,1.4c3.7-1.8,7.4-2.8,11.1-2.8c38.9-2.8,73.1-7.4,102.7-13.9c33.3-6.5,61.1-26.4,83.3-59.7c21.3-31.4,31.9-65.7,31.9-102.7c0-50-20.4-91.1-61.1-123.5c-36.1-25.9-92.1-37.9-167.9-36.1c-71.3,1.9-135.6,7.9-192.9,18c-28.7,4.6-45.3-7.9-50-37.5c-1.9-12.9,0-24.1,5.6-33.3c6.5-10.2,16.7-16.2,30.5-18C319.6,18.5,388.1,12,459.4,10.2c46.3-0.9,87.4,2.3,123.5,9.7c40.7,9.3,74,23.6,99.9,43c50,38,81,87,93,147.1l2.8,48.6c0,91.6-35.2,163.8-105.5,216.5c75.9,47.2,113.8,123.5,113.8,229c0,90.7-33.8,163.8-101.3,219.3c-29.6,23.1-66.6,40.2-111,51.3c-38.9,10.2-82.4,15.3-130.5,15.3c-49.1,0-87-1.9-113.8-5.6c-22.2-2.8-43-6.5-62.5-11.1l-18-5.5c-33.3-6.5-44-25.4-31.9-56.9L217.9,908.1L217.9,908.1z"/></g>
</svg>