<?xml version="1.0" encoding="utf-8"?>
<!-- Svg Vector Icons : http://www.onlinewebfonts.com/icon -->
<!DOCTYPE svg PUBLIC "-//W3C//DTD SVG 1.1//EN" "http://www.w3.org/Graphics/SVG/1.1/DTD/svg11.dtd">
<svg fill="#fecf22" version="1.1" xmlns="http://www.w3.org/2000/svg" xmlns:xlink="http://www.w3.org/1999/xlink" x="0px" y="0px" viewBox="0 0 1000 1000" enable-background="new 0 0 1000 1000" xml:space="preserve">
<metadata> Svg Vector Icons : http://www.onlinewebfonts.com/icon </metadata>
<g><path d="M706.1,730.8v213.8c0,30.2-15.6,45.3-46.7,45.3c-30.2,0-45.3-15.1-45.3-45.3V730.8H214.6c-34.9,0-52.4-17.5-52.4-52.4c0-15.1,5.2-29.7,15.6-43.9l424.9-599c14.2-17,30.2-25.5,48.2-25.5c36.8,0,55.2,17.5,55.2,52.4v575h86.4c30.2,0,45.3,16.1,45.3,48.2c0,30.2-15.1,45.3-45.3,45.3H706.1z M288.3,638.8l325.7-1.4V178.5L288.3,638.8z"/></g>
</svg>